HIERARCHY
ROOT SpineBase
{
  OFFSET 0.000000 0.000000 0.000000
  CHANNELS 6 Xposition Yposition Zposition Zrotation Xrotation Yrotation
  JOINT SpineMid
  {
    OFFSET 0.000000 30.877797 0.000000
    CHANNELS 3 Zrotation Xrotation Yrotation
    JOINT SpineShoulder
    {
      OFFSET 0.092929 22.910769 -0.749001
      CHANNELS 3 Zrotation Xrotation Yrotation
      JOINT Neck
      {
        OFFSET 0.058354 7.567917 -0.572445
        CHANNELS 3 Zrotation Xrotation Yrotation
        JOINT Head
        {
          OFFSET -2.582385 14.449106 1.447547
          CHANNELS 3 Zrotation Xrotation Yrotation
          End Site
          {
            OFFSET 0 0 0
          }
        }
      }
      JOINT ShoulderLeft
      {
        OFFSET -16.241401 -4.942118 5.755673
        CHANNELS 3 Zrotation Xrotation Yrotation
        JOINT ElbowLeft
        {
          OFFSET -3.640646 -26.628239 1.046481
          CHANNELS 3 Zrotation Xrotation Yrotation
          JOINT WristLeft
          {
            OFFSET 1.119986 -23.280599 -3.632966
            CHANNELS 3 Zrotation Xrotation Yrotation
            JOINT HandLeft
            {
              OFFSET 0.478169 -3.869065 -0.706615
              CHANNELS 3 Zrotation Xrotation Yrotation
              JOINT HandTipLeft
              {
                OFFSET -0.740288 -5.824586 0.232759
                CHANNELS 3 Zrotation Xrotation Yrotation
                End Site
                {
                  OFFSET 0 0 0
                }
              }
              JOINT ThumbLeft
              {
                OFFSET -2.998819 -1.066569 -1.954811
                CHANNELS 3 Zrotation Xrotation Yrotation
                End Site
                {
                  OFFSET 0 0 0
                }
              }
            }
          }
        }
      }
      JOINT ShoulderRight
      {
        OFFSET 15.460684 -4.633945 -8.645305
        CHANNELS 3 Zrotation Xrotation Yrotation
        JOINT ElbowRight
        {
          OFFSET 6.753434 -26.041014 -4.785545
          CHANNELS 3 Zrotation Xrotation Yrotation
          JOINT WristRight
          {
            OFFSET 0.143555 -19.956478 -5.010566
            CHANNELS 3 Zrotation Xrotation Yrotation
            JOINT HandRight
            {
              OFFSET -0.456252 -7.215055 -1.144815
              CHANNELS 3 Zrotation Xrotation Yrotation
              JOINT HandTipRight
              {
                OFFSET -0.402258 -6.749426 -0.970086
                CHANNELS 3 Zrotation Xrotation Yrotation
                End Site
                {
                  OFFSET 0 0 0
                }
              }
              JOINT ThumbRight
              {
                OFFSET 1.129254 -0.368884 -2.816598
                CHANNELS 3 Zrotation Xrotation Yrotation
                End Site
                {
                  OFFSET 0 0 0
                }
              }
            }
          }
        }
      }
    }
  }
  JOINT HipLeft
  {
    OFFSET -6.675843 0.046306 -0.559447
    CHANNELS 3 Zrotation Xrotation Yrotation
    JOINT KneeLeft
    {
      OFFSET 2.927678 -29.091150 6.045324
      CHANNELS 3 Zrotation Xrotation Yrotation
      JOINT AnkleLeft
      {
        OFFSET 3.586103 -31.155347 7.611591
        CHANNELS 3 Zrotation Xrotation Yrotation
        JOINT FootLeft
        {
          OFFSET -3.788146 -4.602888 -12.814900
          CHANNELS 3 Zrotation Xrotation Yrotation
          End Site
          {
            OFFSET 0 0 0
          }
        }
      }
    }
  }
  JOINT HipRight
  {
    OFFSET 7.099112 1.066240 -6.673730
    CHANNELS 3 Zrotation Xrotation Yrotation
    JOINT KneeRight
    {
      OFFSET 6.883637 -30.715671 5.406742
      CHANNELS 3 Zrotation Xrotation Yrotation
      JOINT AnkleRight
      {
        OFFSET 4.102787 -30.200569 8.370654
        CHANNELS 3 Zrotation Xrotation Yrotation
        JOINT FootRight
        {
          OFFSET -3.945706 -4.589771 -12.815592
          CHANNELS 3 Zrotation Xrotation Yrotation
          End Site
          {
            OFFSET 0 0 0
          }
        }
      }
    }
  }
}
MOTION
Frames: 12
Frame Time: 0.033333
-27.457994 68.526174 373.952747 11.182720 -6.560549 1.455353 -0.556447 0.505403 -0.454628 0.031292 -0.053905 0.481881 -3.837981 -4.216263 -2.942952 0.000000 0.000000 0.000000 -2.556442 7.917864 -1.185521 4.597430 4.226328 -2.112536 11.161479 -3.578822 -0.986002 1.190654 2.394813 3.993553 0.000000 0.000000 0.000000 0.000000 0.000000 0.000000 0.448978 -9.360985 -6.091112 -0.020453 7.793879 2.159363 -14.172315 -11.404132 5.492310 16.629212 5.189711 -6.182332 0.000000 0.000000 0.000000 0.000000 0.000000 0.000000 -22.615258 19.638250 1.489136 3.169231 -9.179300 -0.819745 14.183239 -3.313227 -15.474619 0.000000 0.000000 0.000000 -8.252200 5.495702 -0.235546 1.268057 -1.551075 0.570574 1.818342 2.656849 -17.973977 0.000000 0.000000 0.000000
-28.635621 68.476176 373.244102 13.018179 -7.161097 -0.314280 -0.709831 0.459856 1.555134 0.020315 -0.109223 0.563451 -4.404305 -5.418367 -3.353325 0.000000 0.000000 0.000000 -2.112763 8.500891 -1.427494 5.446926 2.970151 -2.662456 8.971861 -3.762446 -0.931899 2.938056 1.686427 4.867633 0.000000 0.000000 0.000000 0.000000 0.000000 0.000000 0.745723 -11.016328 -6.892030 -0.141012 7.900415 2.449187 -18.096597 -10.015246 6.833969 20.350230 0.646430 -6.742638 0.000000 0.000000 0.000000 0.000000 0.000000 0.000000 -23.972198 18.229826 3.394213 3.334910 -9.017451 -0.642449 13.386129 -2.489409 -17.144146 0.000000 0.000000 0.000000 -9.553400 5.526614 1.826512 0.832862 -1.470845 0.560261 2.013274 2.685996 -19.375197 0.000000 0.000000 0.000000
-29.830472 68.434208 372.635802 14.770016 -7.908817 -1.811094 -0.600801 0.255810 3.337830 -0.069985 -0.102551 0.646321 -4.718956 -6.351131 -3.781957 0.000000 0.000000 0.000000 -2.167606 9.191148 -1.637553 6.429468 2.026871 -3.158147 6.491876 -5.110240 -0.662765 5.619057 2.987514 5.045149 0.000000 0.000000 0.000000 0.000000 0.000000 0.000000 0.496331 -12.557737 -7.646351 0.371600 8.329639 2.481850 -23.407733 -8.943194 8.598661 24.334828 -1.275857 -7.759671 0.000000 0.000000 0.000000 0.000000 0.000000 0.000000 -25.183300 17.044446 5.094174 3.120718 -8.221243 -0.528263 12.995961 -2.384674 -18.489369 0.000000 0.000000 0.000000 -10.765182 5.673674 3.649635 0.362628 -1.096286 0.569815 2.193291 2.343223 -20.604293 0.000000 0.000000 0.000000
-30.959740 68.400861 372.219993 16.007041 -8.615123 -2.727433 -0.458941 0.057733 4.506363 -0.137693 -0.095240 0.708530 -4.348305 -6.762015 -4.154049 0.000000 0.000000 0.000000 -2.200470 10.017014 -1.851628 6.703249 1.157266 -3.378845 5.385727 -6.280865 -0.510338 6.975675 4.360164 4.989273 0.000000 0.000000 0.000000 0.000000 0.000000 0.000000 0.392412 -13.817884 -8.269751 0.774185 8.294610 2.595975 -29.020880 -6.053658 10.604119 27.386385 -2.265043 -8.130749 0.000000 0.000000 0.000000 0.000000 0.000000 0.000000 -25.808073 16.325295 6.227692 2.794577 -7.485420 -0.476968 12.587948 -2.482133 -19.021072 0.000000 0.000000 0.000000 -11.399892 5.958742 4.858421 -0.054778 -0.571702 0.602803 2.047718 1.763396 -21.096387 0.000000 0.000000 0.000000
-31.870528 68.390724 372.003824 16.574282 -9.155771 -3.060657 -0.181750 -0.149472 5.005035 -0.178618 -0.072229 0.744794 -3.536763 -6.869458 -4.467046 0.000000 0.000000 0.000000 -2.078950 10.238371 -1.904992 6.711940 1.270586 -3.707426 3.941895 -7.345007 -0.273563 7.792317 7.316868 3.867285 0.000000 0.000000 0.000000 0.000000 0.000000 0.000000 0.323821 -14.715249 -8.714903 1.220363 7.975588 2.689512 -33.861225 -2.548050 12.633075 28.311717 -5.344498 -7.285150 0.000000 0.000000 0.000000 0.000000 0.000000 0.000000 -25.940107 16.037845 6.727774 2.734257 -6.906241 -0.375039 12.185200 -2.671408 -19.311490 0.000000 0.000000 0.000000 -11.581619 6.282733 5.373271 -0.188799 0.080587 0.684683 1.812843 1.039739 -21.384862 0.000000 0.000000 0.000000
-32.792299 68.340509 371.703361 17.278323 -9.728390 -3.763489 -0.059215 -0.233278 5.888415 -0.229296 -0.072961 0.783957 -2.213045 -7.448892 -4.866189 0.000000 0.000000 0.000000 -2.309815 10.267340 -1.866909 6.388124 1.636030 -3.970557 4.425950 -10.490716 -0.024016 7.979644 13.103513 2.093004 0.000000 0.000000 0.000000 0.000000 0.000000 0.000000 0.634031 -15.615422 -9.174499 1.070174 7.938765 2.963979 -37.328047 1.146722 14.379511 28.923198 -8.885020 -6.166150 0.000000 0.000000 0.000000 0.000000 0.000000 0.000000 -26.030445 15.203467 7.525988 2.430661 -5.903793 -0.297708 11.808852 -2.852654 -19.585108 0.000000 0.000000 0.000000 -11.966067 6.419633 6.259289 -0.243975 1.002298 0.814474 1.521079 0.178904 -21.687178 0.000000 0.000000 0.000000
-33.480475 68.201567 371.530396 17.586083 -10.161890 -4.168124 0.247284 -0.299664 6.398791 -0.208219 -0.077835 0.813312 -1.282413 -7.876791 -5.166755 0.000000 0.000000 0.000000 -2.971632 10.010541 -1.689523 6.012827 1.976199 -4.141163 4.264749 -11.774676 0.028010 8.447702 16.598472 0.758444 0.000000 0.000000 0.000000 0.000000 0.000000 0.000000 0.420182 -15.736135 -9.400492 1.215214 7.254234 3.125314 -39.475523 4.339707 15.752397 23.800271 -10.772892 -4.628220 0.000000 0.000000 0.000000 0.000000 0.000000 0.000000 -26.094430 14.824551 8.023962 2.483695 -5.361954 -0.187146 11.572889 -2.950795 -20.107146 0.000000 0.000000 0.000000 -12.145407 6.662595 6.788552 -0.025471 1.717520 0.953662 1.241647 -0.577456 -22.271193 0.000000 0.000000 0.000000
-34.118479 68.033710 371.363143 18.385616 -10.699041 -3.693323 0.190949 -0.341262 6.123165 -0.229331 -0.054619 0.844676 -0.699692 -7.948821 -5.423774 0.000000 0.000000 0.000000 -4.001207 9.640327 -1.424996 5.272970 2.002849 -4.174643 5.599946 -14.824676 0.038522 8.267054 22.037088 -0.794923 0.000000 0.000000 0.000000 0.000000 0.000000 0.000000 0.403966 -16.140058 -9.704770 0.767678 7.174196 3.508605 -38.679615 8.019311 16.007067 18.005448 -13.028763 -3.097975 0.000000 0.000000 0.000000 0.000000 0.000000 0.000000 -26.667187 15.053299 7.866770 2.835922 -5.077728 -0.020443 11.267440 -3.033441 -20.856522 0.000000 0.000000 0.000000 -12.886497 7.115698 6.553422 0.481123 2.400881 1.139636 0.893700 -1.311580 -23.083017 0.000000 0.000000 0.000000
-34.506503 67.842780 371.365089 19.131057 -11.257338 -3.935622 0.304648 -0.495771 6.582850 -0.228120 -0.146658 0.900474 0.201648 -8.070740 -5.795878 0.000000 0.000000 0.000000 -5.473832 9.535173 -1.116728 6.186610 1.396794 -4.387395 -0.567688 -14.835171 0.242149 14.546054 24.153730 -3.507519 0.000000 0.000000 0.000000 0.000000 0.000000 0.000000 1.553821 -16.752592 -10.281324 -1.530789 7.797599 4.658092 -36.138114 9.615901 15.274957 16.162389 -12.888300 -2.525069 0.000000 0.000000 0.000000 0.000000 0.000000 0.000000 -28.044641 15.412010 8.489926 3.818491 -5.367973 0.251778 11.017679 -3.065969 -21.886969 0.000000 0.000000 0.000000 -13.156306 7.620124 7.065165 0.303782 3.276106 1.206312 0.786382 -2.380345 -24.131229 0.000000 0.000000 0.000000
-34.848421 67.634111 371.531536 19.819093 -12.038325 -5.089645 0.527507 -0.658100 7.993027 -0.202167 -0.234633 0.958479 0.483237 -7.558333 -6.139808 0.000000 0.000000 0.000000 -7.078620 9.810800 -0.817760 6.777647 0.494646 -4.465357 -6.093723 -12.899938 0.529867 21.156041 23.679102 -5.539525 0.000000 0.000000 0.000000 0.000000 0.000000 0.000000 3.807107 -17.616377 -11.119011 -5.570409 8.895373 6.615332 -32.654720 9.920420 13.988938 15.733023 -14.319426 -2.079362 0.000000 0.000000 0.000000 0.000000 0.000000 0.000000 -29.374146 15.229755 9.991602 4.433511 -5.084654 0.480286 10.986468 -3.443985 -23.031072 0.000000 0.000000 0.000000 -13.169876 8.360951 8.552700 -0.355059 4.227039 1.175853 0.832115 -3.788969 -25.322287 0.000000 0.000000 0.000000
-35.327734 67.354338 371.778800 20.416184 -12.964461 -6.967591 0.656127 -0.712234 10.136668 -0.235094 -0.254122 0.998233 2.448250 -8.136109 -6.731763 0.000000 0.000000 0.000000 -8.307205 10.236630 -0.563530 7.344465 -1.045550 -4.453405 -14.002347 -11.030090 1.522420 29.533753 21.281975 -7.295957 0.000000 0.000000 0.000000 0.000000 0.000000 0.000000 7.048679 -19.170645 -12.100097 -10.319918 10.199641 8.995897 -26.475756 8.556614 11.717482 13.537312 -13.276254 -1.620997 0.000000 0.000000 0.000000 0.000000 0.000000 0.000000 -30.282182 14.641712 12.153556 4.433802 -4.481115 0.565129 11.115956 -3.959086 -24.243849 0.000000 0.000000 0.000000 -12.496756 9.134296 10.748055 -1.221411 4.980797 1.130152 0.362287 -4.937297 -26.735081 0.000000 0.000000 0.000000
-35.739956 67.056987 372.148412 20.898369 -13.988445 -9.222733 0.749229 -0.689877 12.655148 -0.247014 -0.295468 1.034809 4.491320 -8.577222 -7.354985 0.000000 0.000000 0.000000 -9.237482 10.851634 -0.357804 7.311712 -2.625393 -4.326844 -20.842053 -10.057863 2.780399 38.690657 15.191685 -7.617866 0.000000 0.000000 0.000000 0.000000 0.000000 0.000000 10.068061 -20.629436 -13.030667 -14.935461 11.487093 11.375461 -21.895798 6.372049 10.142218 12.471373 -9.922928 -1.853371 0.000000 0.000000 0.000000 0.000000 0.000000 0.000000 -31.130705 13.960107 14.677683 4.368670 -3.817826 0.638578 11.275545 -4.601824 -25.495459 0.000000 0.000000 0.000000 -11.547568 9.925752 13.268839 -2.080901 6.055915 1.119278 -0.692605 -3.565301 -27.853926 0.000000 0.000000 0.000000
